<?xml version="1.0" encoding="UTF-8"?>
<svg width="700pt" height="700pt" version="1.1" viewBox="0 0 700 700" xmlns="http://www.w3.org/2000/svg">
 <path d="m560 46.668h-326.67c-6.1875 0-12.121 2.457-16.496 6.832-4.3789 4.375-6.8359 10.312-6.8359 16.5v70h-70c-6.1875 0-12.125 2.457-16.5 6.8359-4.375 4.375-6.832 10.309-6.832 16.496v326.67c0 6.1875 2.457 12.125 6.832 16.5s10.312 6.832 16.5 6.832h326.67c6.1875 0 12.121-2.457 16.496-6.832 4.3789-4.375 6.8359-10.312 6.8359-16.5v-70h70c6.1875 0 12.125-2.457 16.5-6.8359 4.375-4.375 6.832-10.309 6.832-16.496v-326.67c0-6.1875-2.457-12.125-6.832-16.5s-10.312-6.832-16.5-6.832zm-116.67 420h-280v-280h46.668v210c0 6.1875 2.457 12.121 6.8359 16.496 4.375 4.3789 10.309 6.8359 16.496 6.8359h210zm93.332-93.332-280-0.003907v-280h280zm-210-210c0-6.1875 2.457-12.121 6.832-16.496 4.375-4.3789 10.312-6.8359 16.5-6.8359h116.67c6.1875 0 12.121 2.457 16.496 6.8359 4.3789 4.375 6.8359 10.309 6.8359 16.496v116.67c0 8.3359-4.4492 16.039-11.668 20.207s-16.113 4.168-23.332 0-11.668-11.871-11.668-20.207v-93.332h-93.332c-6.1875 0-12.125-2.4609-16.5-6.8359s-6.832-10.309-6.832-16.5z"/>
</svg>
